# xmcd CD database file
#
# Track frame offsets:
#	150
#	22628
#	44918
#	67188
#	89450
#
# Disc length: 1489 seconds
#
# Revision: 0
# Processed by: cddbd v1.5.1PL0 Copyright (c) Steve Scherf et al.
# Submitted via: CDex 1.51
#
DISCID=3f05cf05
DTITLE=時給800円 - たまには泣いてもいいですか？
DYEAR=2004
DGENRE=JPop
TTITLE0=たまには泣いてもいいですか？
TTITLE1=たまには泣いてもいいですか？ 〜Version Red〜
TTITLE2=たまには泣いてもいいですか？ 〜Version Yellow〜
TTITLE3=たまには泣いてもいいですか？ 〜Version Blue〜
TTITLE4=たまには泣いてもいいですか？ 〜カラオケ〜
EXTD=YEAR: 2004
EXTT0=
EXTT1=
EXTT2=
EXTT3=
EXTT4=
PLAYORDER=
